<mxfile host="app.diagrams.net" modified="2023-11-09T12:01:44.350Z" agent="Mozilla/5.0 (Windows NT 10.0; Win64; x64) AppleWebKit/537.36 (KHTML, like Gecko) Chrome/119.0.0.0 Safari/537.36" etag="xMlyLKUHF2v0QM5qcxxp" version="22.1.0" type="device">
  <diagram name="Page-1" id="YdYz-nIqfcK_d-FIIMkh">
    <mxGraphModel dx="1434" dy="758" grid="1" gridSize="10" guides="1" tooltips="1" connect="1" arrows="1" fold="1" page="1" pageScale="1" pageWidth="827" pageHeight="1169" math="0" shadow="0">
      <root>
        <mxCell id="0" />
        <mxCell id="1" parent="0" />
        <mxCell id="mKYavtC3zPki2ENKdUxE-1" value="" style="rounded=0;whiteSpace=wrap;html=1;glass=0;" vertex="1" parent="1">
          <mxGeometry x="110" y="130" width="730" height="900" as="geometry" />
        </mxCell>
        <mxCell id="mKYavtC3zPki2ENKdUxE-2" value="" style="rounded=0;whiteSpace=wrap;html=1;glass=0;shadow=0;" vertex="1" parent="1">
          <mxGeometry x="110" y="400" width="730" height="40" as="geometry" />
        </mxCell>
        <mxCell id="mKYavtC3zPki2ENKdUxE-3" value="&lt;h1&gt;Pages&amp;nbsp;&lt;/h1&gt;&lt;div&gt;- home page - should intrege&amp;nbsp; user&lt;/div&gt;&lt;div&gt;-contact -info for communicating&amp;nbsp;&lt;/div&gt;&lt;div&gt;-history - russel docs&amp;nbsp;&lt;/div&gt;&lt;div&gt;-news - these will have subpages&lt;/div&gt;" style="text;html=1;strokeColor=none;fillColor=none;spacing=5;spacingTop=-20;whiteSpace=wrap;overflow=hidden;rounded=0;" vertex="1" parent="1">
          <mxGeometry x="910" y="50" width="190" height="120" as="geometry" />
        </mxCell>
        <mxCell id="mKYavtC3zPki2ENKdUxE-4" value="&lt;h1&gt;Home page&lt;/h1&gt;&lt;div&gt;club name an address&lt;/div&gt;&lt;div&gt;photo of club&lt;/div&gt;&lt;div&gt;timetable&lt;/div&gt;&lt;div&gt;&lt;br&gt;&lt;/div&gt;" style="text;html=1;strokeColor=none;fillColor=none;spacing=5;spacingTop=-20;whiteSpace=wrap;overflow=hidden;rounded=0;" vertex="1" parent="1">
          <mxGeometry x="900" y="240" width="190" height="120" as="geometry" />
        </mxCell>
        <mxCell id="mKYavtC3zPki2ENKdUxE-5" value="&lt;b&gt;&lt;font style=&quot;font-size: 30px;&quot;&gt;Frankston Chess Club&lt;/font&gt;&lt;/b&gt;" style="text;html=1;strokeColor=none;fillColor=none;align=center;verticalAlign=middle;whiteSpace=wrap;rounded=0;" vertex="1" parent="1">
          <mxGeometry x="290" y="150" width="370" height="30" as="geometry" />
        </mxCell>
        <mxCell id="mKYavtC3zPki2ENKdUxE-6" value="Club Image (tournment of building photo)" style="text;html=1;strokeColor=none;fillColor=none;align=center;verticalAlign=middle;whiteSpace=wrap;rounded=0;" vertex="1" parent="1">
          <mxGeometry x="340" y="260" width="300" height="30" as="geometry" />
        </mxCell>
        <mxCell id="mKYavtC3zPki2ENKdUxE-7" value="&lt;font style=&quot;font-size: 14px;&quot;&gt;&lt;b&gt;&quot;A Club for all levels of Chess&quot;&lt;/b&gt;&lt;/font&gt;" style="text;html=1;strokeColor=none;fillColor=none;align=center;verticalAlign=middle;whiteSpace=wrap;rounded=0;" vertex="1" parent="1">
          <mxGeometry x="370" y="405" width="210" height="30" as="geometry" />
        </mxCell>
        <mxCell id="mKYavtC3zPki2ENKdUxE-8" value="Open Every Wednesday 6:30 - 10:30" style="text;html=1;strokeColor=none;fillColor=none;align=center;verticalAlign=middle;whiteSpace=wrap;rounded=0;" vertex="1" parent="1">
          <mxGeometry x="120" y="405" width="210" height="30" as="geometry" />
        </mxCell>
      </root>
    </mxGraphModel>
  </diagram>
</mxfile>
